<?xml version='1.0' encoding='iso-8859-1'?>
<svg version="1.1" xmlns="http://www.w3.org/2000/svg" viewBox="0 0 296 296" xmlns:xlink="http://www.w3.org/1999/xlink" enable-background="new 0 0 296 296">
  <g>
    <g>
      <circle cx="148" cy="90.25" r="8"/>
      <circle cx="156" cy="140.25" r="8"/>
      <circle cx="131" cy="173.25" r="8"/>
      <path d="m219.671,197h-0.223l-22.781-49.023v-98.977h17v-49h-132v49h17v99.779l-21.87,48.221h-0.225l-44.894,99h232.643l-44.65-99zm-112.671,33.25c0-4.419 3.58-8 8-8 4.418,0 8,3.581 8,8s-3.582,8-8,8c-4.42,0-8-3.581-8-8zm33,33c0-4.419 3.58-8 8-8 4.418,0 8,3.581 8,8s-3.582,8-8,8c-4.42,0-8-3.581-8-8zm41-25c-4.42,0-8-3.581-8-8s3.58-8 8-8c4.418,0 8,3.581 8,8s-3.582,8-8,8zm-66.333-86.002v-103.248h66v102.429l21.332,45.571h-107.737l20.405-44.752z"/>
    </g>
  </g>
</svg>
