<svg id="Capa_1" enable-background="new 0 0 512 512" height="512" viewBox="0 0 512 512" width="512" xmlns="http://www.w3.org/2000/svg"><g><g><path clip-rule="evenodd" d="m255.985 82.498h68.975c3.417 0 6.22-2.803 6.22-6.247v-44.52c0-3.445-2.803-6.247-6.22-6.247h-68.975z" fill="#ff8086" fill-rule="evenodd"/></g><g><path d="m255.985 128.41c-4.268 0-7.726-3.459-7.726-7.726v-107.549c0-4.267 3.459-7.726 7.726-7.726 4.268 0 7.726 3.459 7.726 7.726v107.549c0 4.267-3.458 7.726-7.726 7.726z" fill="#eceaec"/></g><g><path clip-rule="evenodd" d="m300.665 82.498h24.296c3.417 0 6.22-2.803 6.22-6.247v-44.52c0-3.445-2.803-6.247-6.22-6.247h-24.296c3.446 0 6.249 2.803 6.249 6.247v44.52c0 3.445-2.804 6.247-6.249 6.247z" fill="#f76672" fill-rule="evenodd"/></g><g><path clip-rule="evenodd" d="m352.615 506.592h139.323c2.57 0 4.672-2.102 4.672-4.671v-293.832h-143.995l-42.702 153.762z" fill="#b3e59f" fill-rule="evenodd"/></g><g><path clip-rule="evenodd" d="m159.385 506.592h-139.323c-2.599 0-4.702-2.102-4.702-4.671v-293.832h144.025l39.715 153.762z" fill="#b3e59f" fill-rule="evenodd"/></g><g><path clip-rule="evenodd" d="m15.36 249.864h125.306v256.727h14.017c2.57 0 4.702-2.102 4.702-4.671v-270.944h-144.025z" fill="#95d6a4" fill-rule="evenodd"/></g><g><path clip-rule="evenodd" d="m159.385 230.976h-144.025-12.732c-1.46 0-2.628-1.197-2.628-2.657v-27.121c0-1.46 1.168-2.657 2.628-2.657h156.757z" fill="#6f6571" fill-rule="evenodd"/></g><g><path clip-rule="evenodd" d="m140.666 230.976h18.719v-22.887-9.547h-18.719v9.547z" fill="#5d5360" fill-rule="evenodd"/></g><g><path clip-rule="evenodd" d="m159.385 506.592h193.23v-275.616-93.886h-193.23v93.886z" fill="#eceaec" fill-rule="evenodd"/></g><g><path clip-rule="evenodd" d="m159.385 159.978h193.23 17.2c1.957 0 3.533-1.576 3.533-3.562v-32.171c0-1.956-1.577-3.562-3.533-3.562h-113.83-113.8c-1.957 0-3.563 1.606-3.563 3.562v32.171c0 1.985 1.606 3.562 3.563 3.562z" fill="#6f6571" fill-rule="evenodd"/></g><g><path clip-rule="evenodd" d="m159.385 179.158h175.212v70.998 256.436h18.018v-275.616-70.998h-193.23z" fill="#dad8db" fill-rule="evenodd"/></g><g><path clip-rule="evenodd" d="m352.615 159.978h17.2c1.957 0 3.533-1.576 3.533-3.562v-32.171c0-1.956-1.577-3.562-3.533-3.562h-38.664c1.957 0 3.563 1.606 3.563 3.562v32.171c0 1.956-1.577 3.562-3.504 3.562z" fill="#5d5360" fill-rule="evenodd"/></g><g><path clip-rule="evenodd" d="m352.615 249.864h125.306v256.727h14.017c2.57 0 4.672-2.102 4.672-4.671v-270.944h-143.995z" fill="#95d6a4" fill-rule="evenodd"/></g><g><path clip-rule="evenodd" d="m123.671 324.512h-35.714v-42.914h35.714c2.015 0 3.679 1.664 3.679 3.678v35.558c0 2.014-1.664 3.678-3.679 3.678z" fill="#9fd4fe" fill-rule="evenodd"/></g><g><path clip-rule="evenodd" d="m87.957 324.512h-35.685c-2.044 0-3.709-1.664-3.709-3.678v-35.558c0-2.014 1.665-3.678 3.709-3.678h35.685z" fill="#9fd4fe" fill-rule="evenodd"/></g><g><path clip-rule="evenodd" d="m87.957 401.787h-35.685c-2.044 0-3.709-1.664-3.709-3.708v-35.528c0-2.044 1.665-3.708 3.709-3.708h35.685z" fill="#9fd4fe" fill-rule="evenodd"/></g><g><path clip-rule="evenodd" d="m123.671 401.787h-35.714v-42.944h35.714c2.015 0 3.679 1.664 3.679 3.708v35.528c0 2.044-1.664 3.708-3.679 3.708z" fill="#9fd4fe" fill-rule="evenodd"/></g><g><path clip-rule="evenodd" d="m388.329 324.512h35.685v-42.914h-35.685c-2.044 0-3.709 1.664-3.709 3.678v35.558c.001 2.014 1.665 3.678 3.709 3.678z" fill="#9fd4fe" fill-rule="evenodd"/></g><g><path clip-rule="evenodd" d="m424.014 324.512h35.714c2.015 0 3.679-1.664 3.679-3.678v-35.558c0-2.014-1.665-3.678-3.679-3.678h-35.714z" fill="#9fd4fe" fill-rule="evenodd"/></g><g><path clip-rule="evenodd" d="m424.014 401.787h35.714c2.015 0 3.679-1.664 3.679-3.708v-35.528c0-2.044-1.665-3.708-3.679-3.708h-35.714z" fill="#9fd4fe" fill-rule="evenodd"/></g><g><path clip-rule="evenodd" d="m388.329 401.787h35.685v-42.944h-35.685c-2.044 0-3.709 1.664-3.709 3.708v35.528c.001 2.044 1.665 3.708 3.709 3.708z" fill="#9fd4fe" fill-rule="evenodd"/></g><g><path clip-rule="evenodd" d="m209.408 472.348 46.577 7.211v-112.541h-41.087c-3.008 0-5.49 2.452-5.49 5.459z" fill="#9fd4fe" fill-rule="evenodd"/></g><g><path clip-rule="evenodd" d="m255.985 477.499 46.577-5.151v-99.871c0-3.007-2.453-5.459-5.461-5.459h-41.117v110.481z" fill="#9fd4fe" fill-rule="evenodd"/></g><g><path clip-rule="evenodd" d="m255.985 309.156c31.421 0 56.886-25.603 56.886-57.161s-25.464-57.161-56.886-57.161-56.885 25.603-56.885 57.162 25.464 57.16 56.885 57.16z" fill="#9fd4fe" fill-rule="evenodd"/></g><g><path clip-rule="evenodd" d="m352.615 230.976h143.995 12.732c1.46 0 2.657-1.197 2.657-2.657v-27.121c0-1.46-1.197-2.657-2.657-2.657h-156.727z" fill="#6f6571" fill-rule="evenodd"/></g><g><path clip-rule="evenodd" d="m496.611 230.976h12.732c1.46 0 2.657-1.197 2.657-2.657v-27.121c0-1.46-1.197-2.657-2.657-2.657h-30.458c1.431 0 2.628 1.197 2.628 2.657v27.121c0 1.46-1.197 2.657-2.628 2.657z" fill="#5d5360" fill-rule="evenodd"/></g><path d="m273.214 251.831h-9.503v-20.854c0-4.267-3.459-7.726-7.726-7.726s-7.726 3.459-7.726 7.726v28.581c0 4.267 3.459 7.726 7.726 7.726h17.229c4.268 0 7.726-3.459 7.726-7.726s-3.458-7.727-7.726-7.727z" fill="#6f6571"/><g><path clip-rule="evenodd" d="m48.563 303.055h39.394v-21.457h-35.685c-2.044 0-3.709 1.664-3.709 3.678z" fill="#72bffc" fill-rule="evenodd"/></g><g><path clip-rule="evenodd" d="m87.957 303.055h39.394v-17.779c0-2.014-1.665-3.678-3.679-3.678h-35.715z" fill="#72bffc" fill-rule="evenodd"/></g><g><path clip-rule="evenodd" d="m48.563 380.301h39.394v-21.457h-35.685c-2.044 0-3.709 1.664-3.709 3.678z" fill="#72bffc" fill-rule="evenodd"/></g><g><path clip-rule="evenodd" d="m87.957 380.301h39.394v-17.779c0-2.014-1.665-3.678-3.679-3.678h-35.715z" fill="#72bffc" fill-rule="evenodd"/></g><g><path clip-rule="evenodd" d="m384.62 380.301h39.394v-21.457h-35.685c-2.044 0-3.709 1.664-3.709 3.678z" fill="#72bffc" fill-rule="evenodd"/></g><g><path clip-rule="evenodd" d="m424.014 380.301h39.394v-17.779c0-2.014-1.665-3.678-3.679-3.678h-35.714v21.457z" fill="#72bffc" fill-rule="evenodd"/></g><g><path clip-rule="evenodd" d="m384.62 303.055h39.394v-21.457h-35.685c-2.044 0-3.709 1.664-3.709 3.678z" fill="#72bffc" fill-rule="evenodd"/></g><g><path clip-rule="evenodd" d="m424.014 303.055h39.394v-17.779c0-2.014-1.665-3.678-3.679-3.678h-35.714v21.457z" fill="#72bffc" fill-rule="evenodd"/></g><g><path clip-rule="evenodd" d="m238.99 208.089c31.421 0 56.886 25.573 56.886 57.132 0 14.48-5.344 27.705-14.192 37.776 18.514-9.429 31.188-28.726 31.188-51.001 0-31.558-25.464-57.161-56.886-57.161-16.996 0-32.268 7.503-42.693 19.384 7.708-3.912 16.44-6.13 25.697-6.13z" fill="#72bffc" fill-rule="evenodd"/></g><g fill="#eceaec"><path d="m123.671 273.871h-71.399c-6.305 0-11.435 5.116-11.435 11.405v35.557c0 6.289 5.13 11.405 11.435 11.405h71.399c6.289 0 11.405-5.116 11.405-11.405v-35.557c0-6.289-5.116-11.405-11.405-11.405zm-67.381 15.453h23.94v27.462h-23.94zm63.334 27.462h-23.941v-27.462h23.941z"/><path d="m123.671 351.117h-71.399c-6.305 0-11.435 5.129-11.435 11.434v35.528c0 6.305 5.13 11.434 11.435 11.434h71.399c6.289 0 11.405-5.129 11.405-11.434v-35.528c0-6.305-5.116-11.434-11.405-11.434zm-67.381 15.453h23.94v27.491h-23.94zm63.334 27.491h-23.941v-27.491h23.941z"/><path d="m459.728 273.871h-71.399c-6.305 0-11.435 5.116-11.435 11.405v35.557c0 6.289 5.13 11.405 11.435 11.405h71.399c6.289 0 11.405-5.116 11.405-11.405v-35.557c.001-6.289-5.116-11.405-11.405-11.405zm-67.381 15.453h23.941v27.462h-23.941zm63.334 27.462h-23.941v-27.462h23.941z"/><path d="m459.728 351.117h-71.399c-6.305 0-11.435 5.129-11.435 11.434v35.528c0 6.305 5.13 11.434 11.435 11.434h71.399c6.289 0 11.405-5.129 11.405-11.434v-35.528c.001-6.305-5.116-11.434-11.405-11.434zm-67.381 15.453h23.941v27.491h-23.941zm63.334 27.491h-23.941v-27.491h23.941z"/></g><g><path d="m255.985 316.883c-35.627 0-64.612-29.108-64.612-64.887s28.985-64.887 64.612-64.887c35.628 0 64.613 29.108 64.613 64.887s-28.985 64.887-64.613 64.887zm0-114.322c-27.107 0-49.159 22.176-49.159 49.434 0 27.259 22.052 49.435 49.159 49.435s49.16-22.176 49.16-49.435c0-27.258-22.053-49.434-49.16-49.434z" fill="#ff8086"/></g><path d="m297.102 359.291h-82.203c-7.288 0-13.216 5.915-13.216 13.186v110.173c0 4.267 3.459 7.726 7.726 7.726h93.154c4.268 0 7.726-3.459 7.726-7.726v-110.173c0-7.271-5.916-13.186-13.187-13.186zm-79.967 15.453h31.124v97.604c0 .904.163 1.769.449 2.575h-31.573zm77.701 100.179h-31.574c.286-.807.449-1.671.449-2.575v-97.604h31.125z" fill="#6f6571"/><g><path clip-rule="evenodd" d="m194.836 506.592h122.298v-27.529c0-3.678-3.271-6.714-7.242-6.714h-7.33-46.577-46.577-7.301c-4.001 0-7.271 3.036-7.271 6.714z" fill="#b3e59f" fill-rule="evenodd"/></g><g><path clip-rule="evenodd" d="m294.328 506.592h22.807v-27.529c0-3.678-3.271-6.714-7.242-6.714h-7.33-15.477c3.971 0 7.242 3.036 7.242 6.714z" fill="#95d6a4" fill-rule="evenodd"/></g></g></svg>